<?xml version="1.0" standalone="no"?>
<!DOCTYPE svg PUBLIC "-//W3C//DTD SVG 20010904//EN"
 "http://www.w3.org/TR/2001/REC-SVG-20010904/DTD/svg10.dtd">
<svg version="1.0" xmlns="http://www.w3.org/2000/svg"
 width="600.000000pt" height="600.000000pt" viewBox="0 0 600.000000 600.000000"
 preserveAspectRatio="xMidYMid meet">
<rect width="100%" height="100%" fill="#ffffff"/>
<g transform="translate(0.000000,600.000000) scale(0.100000,-0.100000)"
fill="#000000" stroke="none">
<path d="M1645 5416 c-61 -27 -125 -110 -186 -241 -136 -295 -243 -852 -226
-1176 l7 -117 -26 -17 c-24 -16 -26 -21 -21 -69 3 -28 14 -78 26 -110 21 -59
21 -59 1 -73 -29 -20 -25 -58 15 -141 l35 -73 -39 -77 c-21 -42 -66 -147 -101
-232 -102 -254 -145 -324 -246 -400 -31 -24 -54 -48 -54 -59 0 -25 56 -73 113
-97 26 -10 47 -23 47 -27 0 -4 -11 -29 -24 -55 -46 -90 -81 -253 -69 -314 7
-34 13 -34 126 -4 55 14 59 13 54 -2 -48 -146 -59 -270 -34 -376 16 -66 35
-76 79 -43 19 15 39 27 44 27 5 -1 24 -33 42 -73 l33 -72 -39 -72 c-66 -119
-64 -136 16 -149 23 -4 42 -10 42 -15 0 -5 -13 -30 -30 -57 l-29 -47 42 -43
c90 -93 411 -341 424 -328 2 1 -8 28 -22 59 -16 35 -28 83 -32 126 l-6 70 -69
11 c-64 11 -68 14 -62 33 14 48 58 110 84 120 l27 10 -71 57 c-141 112 -245
244 -290 370 -12 32 -25 62 -29 66 -4 4 -29 -7 -56 -24 -61 -37 -61 -37 -61
105 0 86 5 118 26 181 14 42 32 87 40 99 8 12 14 25 14 29 0 4 -36 4 -81 0
-81 -7 -81 -7 -73 16 34 112 88 209 157 282 20 21 37 40 37 41 0 2 -20 6 -45
9 -29 5 -45 12 -45 21 0 33 117 154 210 217 l25 17 -47 0 c-26 1 -50 5 -53 11
-15 25 139 147 235 187 92 38 208 24 271 -33 16 -14 16 -10 12 49 -7 78 11
124 82 212 106 132 236 211 363 222 l71 6 -44 49 c-85 95 -67 191 49 263 43
26 59 30 120 30 85 -1 133 -22 190 -86 65 -71 89 -138 94 -259 7 -169 -38
-299 -137 -400 l-53 -55 -13 61 c-25 116 -75 188 -162 230 -197 97 -428 -71
-441 -321 -4 -68 -1 -89 18 -132 12 -28 30 -59 39 -68 17 -15 17 -12 0 37 -35
100 -18 214 46 314 115 180 347 177 440 -7 30 -57 33 -77 6 -33 -35 58 -86 88
-156 92 -72 5 -118 -12 -167 -62 -90 -90 -95 -260 -10 -349 31 -33 92 -67 120
-67 33 0 32 -11 -2 -54 -73 -91 -73 -103 1 -37 156 139 333 246 453 273 58 13
69 21 100 80 46 86 62 201 80 558 15 290 45 441 116 583 32 63 82 137 93 137
14 0 31 -152 31 -270 0 -137 -16 -257 -64 -480 -66 -309 -82 -478 -52 -575 10
-35 20 -45 80 -78 91 -49 120 -72 244 -191 l105 -101 -31 60 c-17 33 -39 90
-49 127 -19 75 -13 119 30 208 42 89 159 170 246 170 49 0 121 -27 165 -63 43
-36 106 -139 106 -173 -1 -12 -8 -4 -21 21 -25 51 -65 92 -113 117 -59 30
-151 22 -208 -18 -65 -46 -102 -112 -106 -194 -5 -84 10 -131 57 -183 111
-123 292 -95 365 56 14 28 25 47 26 40 0 -23 -46 -118 -74 -150 -15 -18 -23
-33 -17 -33 22 0 94 83 119 139 23 47 27 70 27 146 0 80 -3 97 -32 157 -55
116 -151 188 -263 196 -70 5 -123 -9 -183 -49 -54 -36 -122 -124 -139 -181 -6
-21 -16 -37 -22 -35 -21 7 -75 87 -96 144 -27 71 -36 206 -21 288 35 189 172
339 322 352 105 10 210 -51 245 -142 30 -79 -6 -154 -94 -199 l-46 -24 42 -7
c116 -19 268 -134 345 -261 92 -152 113 -273 65 -376 -15 -32 -25 -58 -22 -58
3 0 24 10 47 23 36 19 57 22 147 22 115 0 142 -9 242 -82 46 -34 138 -144 138
-166 0 -8 -17 -11 -50 -9 l-49 4 78 -79 c59 -59 87 -97 115 -154 36 -76 45
-119 25 -119 -5 0 -30 5 -55 11 -25 6 -47 10 -49 7 -2 -2 8 -35 22 -73 21 -59
26 -87 26 -178 0 -63 -4 -112 -10 -118 -8 -8 -23 -3 -52 17 -23 15 -43 25 -45
23 -1 -2 -8 -30 -15 -62 -19 -86 -76 -190 -144 -264 -57 -61 -226 -183 -253
-183 -7 0 -16 -4 -19 -10 -3 -5 0 -7 7 -5 16 6 50 -36 66 -83 13 -39 16 -38
-90 -47 l-78 -7 0 -66 c0 -58 -34 -189 -53 -209 -3 -2 -23 7 -46 21 -46 29
-71 33 -71 11 0 -27 -40 -122 -79 -186 -21 -35 -38 -65 -36 -67 10 -11 340
127 463 194 135 74 452 295 452 315 0 4 -16 35 -35 68 -29 48 -65 131 -65 146
0 2 26 -4 58 -13 101 -27 106 -16 72 150 -12 55 -19 102 -17 104 2 3 28 -11
57 -31 28 -19 59 -35 67 -35 7 0 22 17 31 37 24 53 23 288 -1 353 -9 24 -15
46 -13 48 2 2 33 -5 68 -14 95 -25 102 -20 96 74 -4 53 -16 105 -40 168 l-34
91 55 11 c68 14 121 45 121 70 0 11 -17 31 -38 46 -45 31 -105 107 -131 167
-21 48 -46 136 -86 299 -14 58 -37 144 -52 192 l-26 86 26 34 c35 46 64 107
72 150 6 30 3 40 -15 58 l-23 23 28 56 c41 84 65 159 65 207 0 44 -19 74 -46
74 -10 0 -13 6 -10 18 31 101 46 532 27 753 -29 324 -99 605 -181 718 -60 83
-152 98 -262 43 -169 -84 -451 -370 -768 -780 l-25 -32 -67 25 c-101 37 -249
72 -383 90 -159 22 -468 16 -597 -13 l-87 -19 -67 111 c-199 325 -430 633
-548 730 -86 70 -172 92 -241 62z m122 -205 c82 -50 245 -294 328 -491 47
-113 95 -259 95 -292 0 -17 -2 -17 -30 -3 -16 8 -31 15 -35 15 -10 0 -4 -45
10 -70 21 -37 19 -41 -25 -34 -42 7 -46 4 -30 -26 8 -16 -2 -26 -73 -73 -197
-132 -359 -292 -520 -514 l-82 -112 -28 27 c-25 24 -77 110 -77 128 0 3 18 4
40 2 22 -2 40 -3 40 -2 0 2 -10 42 -22 91 -31 121 -31 399 0 578 47 277 124
516 214 670 73 123 122 150 195 106z m2827 -132 c76 -60 159 -345 186 -634 27
-293 -7 -614 -84 -804 l-25 -61 56 6 55 7 -26 -51 c-25 -50 -130 -172 -139
-162 -2 3 -30 55 -61 116 -119 234 -237 398 -397 548 -83 78 -92 89 -81 107
21 34 15 42 -28 36 l-39 -5 18 36 c30 61 35 82 16 82 -9 0 -30 -7 -47 -16
l-31 -16 7 29 c21 83 142 339 219 462 83 134 206 277 277 324 35 23 92 21 124
-4z m-2264 -1974 c75 -39 26 -156 -53 -126 -55 21 -67 80 -23 118 32 27 38 28
76 8z m127 -82 c-4 -3 -7 0 -7 7 0 7 3 10 7 7 3 -4 3 -10 0 -14z m1177 -74
c69 -55 -5 -151 -84 -109 -42 22 -29 111 18 123 32 9 39 7 66 -14z m-1454
-115 c42 -45 109 -57 163 -30 15 8 27 13 27 10 0 -3 -21 -27 -46 -54 -31 -33
-55 -50 -71 -50 -57 0 -153 64 -153 101 0 20 26 49 43 49 7 0 23 -12 37 -26z
m1697 -76 c-2 -18 -4 -6 -4 27 0 33 2 48 4 33 2 -15 2 -42 0 -60z m-280 -107
c28 -14 85 -14 117 0 20 9 29 9 41 -1 46 -38 -26 -93 -118 -91 -63 1 -137 42
-152 85 -8 24 -6 31 14 47 24 20 24 20 50 -4 14 -14 36 -30 48 -36z"/>
<path d="M2562 2499 c-70 -12 -145 -51 -176 -91 -105 -139 -4 -377 199 -469
62 -28 65 -31 65 -65 0 -33 -4 -37 -52 -59 -66 -30 -161 -55 -208 -55 -144 0
-273 123 -314 300 -16 68 -27 86 -46 75 -39 -24 38 -212 124 -303 59 -63 93
-140 126 -289 14 -64 16 -92 8 -135 -24 -130 14 -262 102 -350 48 -48 68 -60
129 -78 200 -61 376 23 475 225 26 53 50 84 95 123 138 121 338 383 442 580
39 73 47 82 67 77 32 -8 29 28 -4 54 -38 30 -64 28 -64 -5 0 -51 -146 -216
-251 -284 -158 -102 -308 -95 -507 25 -84 51 -87 54 -90 92 l-3 40 60 12 c177
35 331 192 331 339 0 61 -15 94 -62 138 -67 63 -171 100 -311 108 -45 3 -106
1 -135 -5z m141 -94 c33 -7 62 -17 65 -20 16 -15 -36 -35 -92 -36 -145 -2
-176 3 -176 31 0 37 101 50 203 25z m147 -739 c0 -3 -4 -8 -10 -11 -5 -3 -10
-1 -10 4 0 6 5 11 10 11 6 0 10 -2 10 -4z m167 -33 c-4 -3 -10 -3 -14 0 -3 4
0 7 7 7 7 0 10 -3 7 -7z m103 -4 c0 -15 -18 -19 -23 -6 -3 8 1 14 9 14 8 0 14
-4 14 -8z m-506 -24 c15 -6 18 -5 12 6 -4 8 4 1 18 -16 31 -35 31 -38 10 -99
-12 -35 -13 -51 -5 -59 8 -8 11 -7 11 5 0 8 9 37 21 63 16 35 29 50 57 62 52
22 164 14 222 -15 42 -22 90 -74 90 -99 0 -19 -71 -196 -102 -255 -37 -69
-107 -141 -167 -170 -38 -19 -62 -23 -146 -23 -93 0 -104 2 -155 31 -137 77
-193 251 -141 437 21 77 40 102 96 129 42 19 139 21 179 3z"/>
<path d="M2631 1394 c0 -11 3 -14 6 -6 3 7 2 16 -1 19 -3 4 -6 -2 -5 -13z"/>
<path d="M2620 1350 c0 -7 3 -10 7 -7 3 4 3 10 0 14 -4 3 -7 0 -7 -7z"/>
</g>
</svg>
